<svg width="148" height="40" viewBox="0 0 148 40" fill="none" xmlns="http://www.w3.org/2000/svg">
<path d="M126.359 27.4531C126.394 27.8191 126.445 28.1851 126.508 28.5458C126.473 28.3425 126.445 28.1391 126.416 27.9358C126.393 27.7785 126.371 27.6158 126.359 27.4531Z" fill="#DA1F27"/>
<path d="M127.65 32.6347C127.428 32.0942 127.236 31.542 127.07 30.9727C127.235 31.5367 127.434 32.0942 127.65 32.6347Z" fill="#DA1F27"/>
<path d="M119.504 19.6797C119.101 19.6968 118.703 19.732 118.312 19.778C118.704 19.7256 119.101 19.6968 119.504 19.6797Z" fill="#DA1F27"/>
<path opacity="0.1" d="M143.137 27.6817C143.086 27.6646 143.029 27.6464 142.973 27.6358C142.961 27.6358 142.95 27.6358 142.944 27.6304C142.916 27.6251 142.893 27.6133 142.876 27.6016C142.86 27.5962 142.848 27.5845 142.837 27.5663C142.808 27.5375 142.797 27.5022 142.797 27.4616C142.797 27.4263 142.802 27.3975 142.82 27.3751C142.825 27.3633 142.831 27.358 142.837 27.3516C142.939 27.4616 143.041 27.5716 143.138 27.6828L143.137 27.6817Z" fill="#DA1F27"/>
<path d="M16 0.00390625V1.926C16 2.51675 16.4681 2.9962 17.0438 2.9962H21.1178V17.2652C21.1178 17.5018 21.3101 17.6912 21.541 17.6912H24.6088V2.9962H28.5292C29.1822 2.9962 29.7214 2.45147 29.7214 1.7751V0.00390625H16Z" fill="#DA1F27"/>
<path d="M46.2647 14.2944C45.4319 12.9181 44.7726 11.956 44.2846 11.4166C43.7925 10.8772 43.1708 10.3763 42.4153 9.92899C43.9336 9.69783 45.0662 9.15095 45.83 8.28195C46.5928 7.41936 46.9762 6.31919 46.9762 4.98143C46.9762 3.93477 46.7202 2.99941 46.2208 2.18284C45.7203 1.3727 45.0484 0.80656 44.2094 0.484428C43.3766 0.167647 42.0381 0.00390625 40.1929 0.00390625H32.8516V17.7597H35.1576C35.8117 17.7597 36.3373 17.2192 36.3373 16.5471V10.3507H37.0488C37.8482 10.3507 38.4323 10.4159 38.8032 10.5476C39.1689 10.6803 39.521 10.9307 39.8481 11.2849C39.9317 11.3781 40.0341 11.5033 40.149 11.6542C41.1155 12.9117 41.8333 14.3554 42.3129 15.8751L42.5888 16.7376C42.7821 17.3509 43.3317 17.7597 43.9607 17.7597H48.3806L46.2668 14.2944H46.2647ZM42.0496 7.2995C41.6327 7.44397 40.5889 7.51675 38.9171 7.51675H36.3352V3.00476H39.0581C40.474 3.00476 41.3182 3.03259 41.6003 3.07112C42.1646 3.16315 42.6066 3.40074 42.9138 3.76247C43.2272 4.13062 43.3819 4.61863 43.3819 5.21153C43.3819 5.74556 43.2607 6.1929 43.0297 6.54179C42.7925 6.8971 42.4665 7.14753 42.0496 7.2995Z" fill="#DA1F27"/>
<path d="M64.1703 2.37859C62.6845 0.810734 60.7065 0.0273438 58.2364 0.0273438C56.8739 0.0273438 55.667 0.251017 54.6222 0.703714C53.8385 1.0419 53.1165 1.55667 52.4582 2.25123C51.7989 2.94579 51.2765 3.72918 50.8961 4.60247C50.381 5.79361 50.125 7.25872 50.125 9.01065C50.125 11.745 50.8648 13.8908 52.3339 15.4458C53.8082 17.0062 55.7924 17.7842 58.2866 17.7842C60.7807 17.7842 62.7148 17.0008 64.1839 15.4404C65.6582 13.8726 66.3917 11.7001 66.3917 8.92931C66.3917 6.15855 65.6519 3.95393 64.1713 2.37966M61.5967 13.3311C60.7326 14.3253 59.625 14.8219 58.2751 14.8219C56.9251 14.8219 55.8123 14.3189 54.9356 13.3182C54.0579 12.3112 53.617 10.8396 53.617 8.89721C53.617 6.95478 54.0454 5.43723 54.8991 4.45585C55.7569 3.4809 56.876 2.99074 58.2761 2.99074C59.6762 2.99074 60.789 3.47555 61.6291 4.44301C62.4744 5.41155 62.8976 6.87773 62.8976 8.84584C62.8976 10.8139 62.4629 12.3315 61.5978 13.3311" fill="#DA1F27"/>
<path d="M80.0306 0.0625V11.8786L73.4332 0.856592C73.1375 0.364298 72.613 0.0625 72.0498 0.0625H69.5703V17.7509H72.8053V6.21725L79.2501 16.8915C79.5709 17.4298 80.1403 17.7509 80.7557 17.7509H83.2666V0.0625H80.0316H80.0306Z" fill="#DA1F27"/>
<path d="M96.3269 8.2584C95.469 8.2584 94.7784 8.96581 94.7784 9.84445V11.1501H98.6528V13.328C98.1418 13.7357 97.5337 14.0857 96.818 14.3661C96.1085 14.6465 95.3938 14.792 94.6854 14.792C93.256 14.792 92.093 14.2826 91.2091 13.2638C90.3272 12.2449 89.8852 10.7156 89.8852 8.68541C89.8852 6.78687 90.3199 5.36671 91.1976 4.40459C92.068 3.44355 93.2372 2.97266 94.723 2.95981C95.795 2.95018 96.4596 3.04115 97.1074 3.53237C97.1074 3.53237 97.4909 3.76782 97.82 4.43777C98.1429 5.09487 98.7489 5.36564 99.5253 5.3346L101.595 5.23935C101.592 3.97009 101.267 3.02938 100.41 2.00947C99.031 0.368846 96.8065 0.00390625 94.724 0.00390625C93.1202 0.00390625 91.7827 0.2843 90.7075 0.851509C89.2959 1.59744 88.227 2.66658 87.4987 4.05463C86.7652 5.44269 86.3984 7.02874 86.3984 8.81812C86.3984 10.4673 86.7276 11.9902 87.3806 13.3911C88.0399 14.792 89.0148 15.8686 90.322 16.6253C91.6218 17.3776 93.1515 17.7597 94.9038 17.7597C96.2851 17.7597 97.6455 17.4921 98.9955 16.9506C100.338 16.4155 101.365 15.8044 102.08 15.097V8.25733H96.3279L96.3269 8.2584Z" fill="#DA1F27"/>
<path d="M46.7464 32.1836C46.1675 31.4259 45.3452 30.8876 44.2731 30.5708C45.0307 30.2294 45.6346 29.7093 46.0776 29.0126C46.5207 28.3212 46.7464 27.5582 46.7464 26.7288C46.7464 25.9593 46.5667 25.2679 46.2062 24.6504C45.8467 24.0318 45.3974 23.5385 44.851 23.1693C44.3118 22.8022 43.7016 22.5507 43.0141 22.4394C42.3276 22.3206 41.2869 22.2617 39.892 22.2617H32.8516V39.9993H38.8513C41.1197 39.98 42.5449 39.9394 43.1426 39.8741C44.0861 39.7756 44.8834 39.4931 45.5249 39.0383C46.1675 38.5781 46.6816 37.9723 47.0546 37.2093C47.4276 36.4462 47.6136 35.6639 47.6136 34.8548C47.6136 33.8349 47.3242 32.9402 46.7464 32.1836ZM36.4104 25.2155H38.4532C40.1302 25.2155 41.1385 25.2347 41.4917 25.2754C42.0883 25.3482 42.5324 25.5515 42.8333 25.9004C43.1353 26.2418 43.2836 26.6827 43.2836 27.236C43.2836 27.7893 43.1102 28.2699 42.7633 28.6187C42.4091 28.973 41.9347 29.1838 41.3234 29.2566C40.9901 29.2962 40.1292 29.3154 38.7416 29.3154H36.4094V25.2166L36.4104 25.2155ZM43.432 36.1904C43.105 36.5661 42.6745 36.8026 42.1405 36.9011C41.7999 36.9738 40.9839 37.0124 39.6997 37.0124H36.4104V32.2692H39.2828C40.9013 32.2692 41.9546 32.3548 42.4362 32.5186C42.9253 32.6898 43.291 32.9595 43.548 33.3341C43.805 33.7022 43.9336 34.156 43.9336 34.69C43.9336 35.3139 43.7664 35.8148 43.432 36.1894" fill="#DA1F27"/>
<path d="M64.3939 24.6162C62.8851 23.0451 60.8779 22.2617 58.3691 22.2617C56.9836 22.2617 55.76 22.4907 54.6974 22.9424C53.896 23.2731 53.1635 23.7889 52.4927 24.4824C51.8208 25.1759 51.2932 25.9646 50.9076 26.8368C50.3862 28.0205 50.125 29.4899 50.125 31.2333C50.125 33.9623 50.8763 36.107 52.3673 37.6652C53.8646 39.2234 55.876 39.9993 58.4109 39.9993C60.9458 39.9993 62.9133 39.2181 64.4116 37.6523C65.909 36.0866 66.654 33.9237 66.654 31.1562C66.654 28.3886 65.9027 26.1808 64.3928 24.6151M61.7775 35.5451C60.9019 36.5372 59.7713 37.0402 58.4046 37.0402C57.0379 37.0402 55.9021 36.5372 55.0077 35.5323C54.1196 34.5327 53.6713 33.058 53.6713 31.1177C53.6713 29.1774 54.106 27.6695 54.9764 26.6902C55.8405 25.7099 56.9825 25.2198 58.4057 25.2198C59.8288 25.2198 60.9594 25.7035 61.8162 26.671C62.673 27.6374 63.1014 29.1078 63.1014 31.0738C63.1014 33.0398 62.6604 34.553 61.7785 35.5462" fill="#DA1F27"/>
<path d="M83.7838 27.0874C83.3983 25.954 82.8319 24.9983 82.0984 24.215C81.3587 23.4316 80.4715 22.8847 79.4361 22.5754C78.6639 22.3507 77.5448 22.2383 76.0789 22.2383H69.5703V39.9983H76.2722C77.5835 39.9983 78.6388 39.8731 79.4235 39.6227C80.4789 39.2802 81.3074 38.8125 81.925 38.2057C82.7483 37.402 83.3732 36.3607 83.8172 35.0647C84.1777 34.0105 84.3564 32.752 84.3564 31.289C84.3564 29.6227 84.1641 28.2261 83.7849 27.0863M80.3117 34.3787C80.0734 35.176 79.7642 35.7496 79.3849 36.0974C78.9993 36.4399 78.5228 36.6903 77.945 36.8348C77.501 36.9472 76.7873 37.006 75.7905 37.006H73.1281V25.2413H74.7299C76.1834 25.2413 77.1614 25.3001 77.6566 25.4125C78.3254 25.557 78.8708 25.8342 79.3023 26.2494C79.7391 26.6582 80.0745 27.2308 80.3127 27.9682C80.5562 28.7002 80.6795 29.7533 80.6795 31.1306C80.6795 32.508 80.5572 33.5878 80.3127 34.3776" fill="#DA1F27"/>
<path d="M98.126 22.2639C97.542 22.2639 97.0091 22.6053 96.7583 23.1382L95.6727 25.4873L93.9047 29.2833L91.1045 23.1254C90.861 22.5988 90.3406 22.2628 89.7628 22.2628H85.5938L92.0428 32.5325V39.0447C92.0428 39.5712 92.4597 39.9993 92.9748 39.9993H95.5891V32.5582L102.07 22.2617H98.126V22.2639Z" fill="#DA1F27"/>
<path d="M12.9147 9.69392C12.4686 8.95869 11.8552 8.38078 11.0674 7.95484C10.2816 7.52997 9.06642 7.11687 7.43014 6.72303C5.78759 6.32385 4.75316 5.94178 4.3258 5.57363C3.99144 5.28789 3.83053 4.94542 3.83053 4.53874C3.83053 4.09461 4.00398 3.73823 4.36342 3.47175C4.91511 3.05972 5.6831 2.85638 6.66215 2.85638C7.64121 2.85638 8.32874 3.04688 8.79998 3.43429C9.04762 3.63121 9.24614 3.89662 9.40183 4.22089C9.71111 4.86837 10.3245 5.30608 11.0308 5.27504L13.1007 5.1798C13.0516 3.60552 12.4947 2.34803 11.4341 1.40946C10.3746 0.469821 8.79371 0 6.69873 0C5.41666 0 4.32058 0.196918 3.4084 0.590754C2.50353 0.98994 1.80973 1.56785 1.32595 2.32342C0.843218 3.08433 0.600806 3.89662 0.600806 4.77312C0.600806 6.12479 1.11489 7.27312 2.13782 8.21276C2.86924 8.88592 4.13981 9.44456 5.94955 9.90796C7.34969 10.2633 8.25455 10.5116 8.64429 10.6518C9.22629 10.8604 9.62961 11.1087 9.85844 11.3934C10.0935 11.6792 10.2053 12.0227 10.2053 12.4283C10.2053 13.0576 9.93263 13.6098 9.38093 14.0786C8.82924 14.5484 8.01109 14.7828 6.92651 14.7828C5.89835 14.7828 5.08648 14.5227 4.4794 13.9897C4.12623 13.6794 3.84098 13.2663 3.62991 12.7526C3.33212 12.0355 2.64459 11.5721 1.88287 11.6417L0 11.8322C0.217335 13.7479 0.892327 15.2023 2.02602 16.204C3.16076 17.2014 4.77719 17.7023 6.89098 17.7023C8.34128 17.7023 9.55438 17.4936 10.5282 17.0816C11.501 16.662 12.2512 16.0274 12.7831 15.1702C13.3159 14.314 13.5824 13.4 13.5824 12.4155C13.5824 11.3367 13.3598 10.4292 12.9126 9.69285" fill="#DA1F27"/>
<path d="M116.484 15.8926C116.348 15.9097 116.211 15.9279 116.075 15.945C115.996 15.9503 115.916 15.9621 115.837 15.9803C115.666 16.0092 115.491 16.0381 115.314 16.067C115.121 16.1077 114.934 16.143 114.742 16.189C114.548 16.2297 114.361 16.2757 114.174 16.3228C114.158 16.3281 114.14 16.3345 114.123 16.3345C113.953 16.3806 113.783 16.4277 113.612 16.4801C113.43 16.5379 113.243 16.5903 113.062 16.6545C112.914 16.7006 112.767 16.753 112.625 16.8054C111.683 17.1479 110.781 17.5728 109.924 18.0661C109.76 18.1592 109.595 18.2577 109.436 18.3562C109.272 18.4546 109.113 18.5595 108.953 18.6644V22.18C109.458 21.4887 110.014 20.838 110.616 20.2333C110.809 20.0353 111.001 19.8384 111.206 19.6575C113.101 17.897 115.371 16.5604 117.877 15.7812C117.81 15.7812 117.742 15.7866 117.674 15.793C117.271 15.8101 116.873 15.8455 116.483 15.8915L116.484 15.8926Z" fill="#DA1F27"/>
<path d="M134.662 16.6855L134.804 16.4008C134.724 16.3955 134.605 16.4008 134.458 16.4008C134.112 16.4126 133.601 16.4415 133.045 16.465C132.092 16.511 131.014 16.5817 130.402 16.5988C130.327 16.5988 130.266 16.6042 130.203 16.6042C130.327 16.6619 130.447 16.7208 130.567 16.7786C132.274 17.6208 133.829 18.7371 135.174 20.0791C135.23 20.1316 135.281 20.1893 135.338 20.2418C135.332 20.1958 135.326 20.1487 135.315 20.1027C135.286 19.8469 135.224 19.6082 135.151 19.3824C134.992 18.9233 134.754 18.4995 134.492 18.0628C134.378 17.9055 134.266 17.7664 134.175 17.639L134.186 17.6037L134.663 16.6855H134.662Z" fill="#DA1F27"/>
<path d="M121.078 30.922C121.078 34.1069 121.617 37.157 122.61 39.9984H126.36C123.518 35.8492 121.793 30.846 121.623 25.4297C121.265 27.2019 121.078 29.0384 121.078 30.9209V30.922Z" fill="#DA1F27"/>
<path d="M110.939 35.2672C110.934 35.4995 110.928 35.7381 110.928 35.9757C110.928 36.4059 110.945 36.8297 110.979 37.2546C110.474 36.8768 110.031 36.423 109.663 35.9126C109.379 35.5294 109.14 35.1163 108.953 34.669V37.4644C108.953 37.4879 108.953 37.5168 108.958 37.5403C108.953 37.5692 108.953 37.5928 108.953 37.6217C108.953 38.7604 109.742 39.7193 110.786 39.9515C110.797 39.9569 110.803 39.9569 110.814 39.9569C110.877 39.974 110.938 39.9922 111.001 40.0029H115.784C115.273 37.9288 115.001 35.7488 115.001 33.5121C115.001 31.4552 115.228 29.4507 115.664 27.5264C115.761 27.0962 115.868 26.666 115.988 26.2422C116.039 26.056 116.091 25.8698 116.147 25.6846C116.175 25.5797 116.21 25.4813 116.243 25.3828C116.271 25.2726 116.311 25.1559 116.351 25.0457C116.419 24.8306 116.493 24.6155 116.572 24.4004C116.624 24.2495 116.675 24.1039 116.736 23.9584C116.839 23.6737 116.946 23.3944 117.066 23.1161C117.201 22.7844 117.349 22.4537 117.502 22.1283C117.537 22.0416 117.582 21.9539 117.621 21.8672C113.713 25.0168 111.148 29.8338 110.938 35.2672H110.939Z" fill="#DA1F27"/>
<path d="M146.58 0.190122C146.302 0.0702592 145.998 0.00390625 145.679 0.00390625H111.325C111.246 0.00390625 111.16 0.0103275 111.08 0.0156786C109.957 0.108786 109.056 1.03237 108.965 2.18284C108.959 2.26418 108.953 2.35194 108.953 2.43327V13.3055C111.937 10.7199 115.785 9.14453 119.977 9.08674C120.068 9.08139 120.153 9.08139 120.244 9.08139C120.8 9.08139 121.35 9.11028 121.895 9.16273C121.753 9.04607 121.611 8.93584 121.47 8.83096H121.486C121.389 8.7614 121.293 8.69183 121.191 8.62227C121.078 8.54094 120.964 8.4596 120.845 8.37826C120.732 8.29693 120.613 8.21452 120.494 8.13961C120.323 8.02296 120.147 7.91272 119.977 7.80784C119.887 7.7447 119.79 7.68584 119.693 7.63447C119.614 7.58738 119.535 7.54136 119.46 7.49427C119.302 7.39582 119.138 7.30271 118.967 7.2096C118.507 6.95382 118.094 6.73871 117.781 6.61135C117.77 6.60493 117.765 6.59958 117.753 6.59958C117.816 6.57604 117.884 6.55356 117.952 6.53002C118.008 6.5129 118.071 6.48935 118.133 6.47223C118.19 6.45403 118.246 6.43156 118.309 6.41979C118.524 6.35558 118.712 6.29778 118.888 6.24534C118.984 6.21645 119.075 6.18648 119.171 6.16936C119.262 6.14582 119.364 6.12334 119.467 6.09445C119.529 6.07625 119.591 6.06448 119.659 6.04736C119.745 6.02381 119.824 6.00669 119.909 5.98957C119.937 5.98314 119.96 5.97779 119.988 5.97244C120.119 5.93713 120.256 5.90823 120.385 5.88469C120.504 5.86114 120.623 5.83225 120.749 5.80977C121.083 5.74556 121.429 5.69312 121.77 5.6471C122.633 5.5358 123.511 5.47801 124.403 5.47801C125.923 5.47801 127.404 5.6471 128.828 5.96602C129.577 6.12869 130.308 6.33845 131.023 6.58781C131.546 6.76761 132.056 6.97201 132.561 7.19248C132.811 7.32625 132.947 7.48892 132.963 7.80784C132.975 7.97694 132.981 8.14496 132.993 8.3194L132.998 8.41893C133.054 9.34252 133.134 10.2725 133.259 11.1908C133.304 11.4861 133.554 11.8126 133.792 12.0041C135.006 12.9448 136.277 13.8106 137.463 14.7931C137.883 15.1355 138.081 15.3282 138.127 15.5486V15.554C138.172 15.7873 138.053 16.0538 137.832 16.5718C137.815 16.6178 137.775 16.6938 137.747 16.7869C138.796 17.4429 139.789 18.1867 140.703 19.0182C140.827 19.1285 140.946 19.2441 141.072 19.3607C141.275 19.5469 141.474 19.7438 141.672 19.9472C141.894 20.1805 142.116 20.4127 142.331 20.6503C142.455 20.7959 142.586 20.9414 142.711 21.0923C143.08 21.5343 143.431 21.9934 143.766 22.4697C143.709 22.4632 143.647 22.4632 143.585 22.4632H143.562C143.465 22.4632 143.369 22.4697 143.278 22.4814C143.193 22.4868 143.108 22.4986 143.022 22.5103C142.632 22.5628 142.228 22.673 141.877 22.8239C141.792 22.8528 141.707 22.8935 141.628 22.9459C141.389 23.0743 141.191 23.2188 141.065 23.3815C141.06 23.3879 141.054 23.3932 141.049 23.405C141.042 23.4114 141.037 23.4168 141.032 23.4286C141.019 23.4446 141.013 23.4628 141.011 23.4842C141.01 23.4938 141.009 23.5045 141.009 23.5152C141.009 23.5559 141.02 23.5912 141.049 23.6201C141.06 23.6373 141.072 23.649 141.088 23.6554C141.105 23.6662 141.128 23.6779 141.156 23.6843C141.162 23.6897 141.173 23.6897 141.185 23.6897C141.191 23.6908 141.198 23.6929 141.204 23.695H141.205C141.257 23.7057 141.305 23.7207 141.35 23.7368H141.355C142.246 24.015 142.796 24.7995 142.858 25.6535C142.887 26.072 142.796 26.5086 142.569 26.9035C142.536 26.9677 142.495 27.0309 142.45 27.0897C141.939 27.8153 140.997 28.2745 139.999 28.4254C139.874 28.4435 139.744 28.4607 139.619 28.466C138.95 28.5185 138.286 28.42 137.735 28.1706C137.554 28.0893 137.383 27.9844 137.231 27.8678C137.395 27.9031 137.565 27.9149 137.747 27.9149C138.308 27.9202 138.898 27.7811 139.363 27.5424C139.482 27.4846 139.59 27.4151 139.687 27.3455C139.879 27.2117 140.033 27.0544 140.129 26.88C139.897 26.8564 139.709 26.8222 139.511 26.8104H139.505C139.466 26.8051 139.421 26.7986 139.375 26.7986C139.352 26.7986 139.324 26.7986 139.301 26.7933C138.74 26.7933 138.223 26.712 137.764 26.5493C136.692 26.1769 135.903 25.3688 135.438 24.0621C135.398 23.969 135.324 23.8406 135.205 23.7657C135.074 23.6726 134.95 23.6661 134.847 23.6608H134.763C134.626 23.6608 134.495 23.6608 134.366 23.6661C133.991 23.6779 133.593 23.7186 133.185 23.7828C132.01 23.9744 130.78 24.3522 129.86 24.7653C129.554 24.9044 129.281 25.0435 129.055 25.1837C128.912 25.2704 128.743 25.3688 128.584 25.4684C127.03 23.8352 125.645 22.0394 124.442 20.1099C124.419 20.4181 124.408 20.7263 124.408 21.0345V21.1041C124.403 21.1212 124.403 21.1447 124.403 21.1619V21.3716C124.396 21.6039 124.396 21.8414 124.403 22.0865C124.408 22.2192 124.414 22.353 124.419 22.4932C124.425 22.4986 124.425 22.5039 124.419 22.5103C124.442 22.7897 124.464 23.0743 124.499 23.3644C124.504 23.4339 124.51 23.5035 124.527 23.5677C124.539 23.7304 124.562 23.893 124.583 24.0504C124.613 24.2537 124.641 24.457 124.674 24.6604C124.704 24.8402 124.737 25.021 124.772 25.2008C124.777 25.2468 124.788 25.2875 124.8 25.3282C124.833 25.509 124.868 25.6888 124.913 25.8633C124.959 26.0666 125.004 26.2582 125.055 26.4562C125.111 26.6713 125.174 26.88 125.237 27.0897C125.401 27.6527 125.599 28.2113 125.815 28.7518C125.986 29.1756 126.173 29.5876 126.365 29.9953C126.371 30.006 126.376 30.0178 126.383 30.036C128.664 34.7653 132.765 38.4093 137.764 40.0018H145.679C145.998 40.0018 146.302 39.9354 146.58 39.8156C147.416 39.4538 148.004 38.6051 148.004 37.6184V2.38618C148.004 1.39624 147.416 0.549711 146.58 0.190122ZM137.807 33.9968C137.773 33.984 137.74 33.9701 137.705 33.9562C137.096 33.709 136.508 33.4211 135.94 33.0989H135.938C134.519 32.2899 133.238 31.2593 132.139 30.0531C132.46 30.2158 132.788 30.3656 133.122 30.5015C134.714 31.1544 136.453 31.514 138.273 31.514C139.09 31.514 139.889 31.4423 140.666 31.3031C139.828 32.3188 138.867 33.2242 137.807 33.9968Z" fill="#DA1F27"/>
<path opacity="0.1" d="M143.137 21.4239C143.086 21.4068 143.029 21.3886 142.973 21.3779C142.961 21.3779 142.95 21.3779 142.944 21.3726C142.916 21.3673 142.893 21.3555 142.876 21.3437C142.86 21.3384 142.848 21.3267 142.837 21.3085C142.808 21.2796 142.797 21.2444 142.797 21.2038C142.797 21.1685 142.802 21.1397 142.82 21.1173C142.825 21.1055 142.831 21.1002 142.837 21.0938C142.939 21.2038 143.041 21.3138 143.138 21.4249L143.137 21.4239Z" fill="#DA1F27"/>
</svg>
